<svg
                version="1.1"
                fill="#ff0000"
                xmlns="http://www.w3.org/2000/svg"
                xmlns:xlink="http://www.w3.org/1999/xlink"
                viewBox="0 0 64 64"
              >
                <path
                  d="M37.5331419,41.3325083 L25.3997411,41.3325083 L25.3997411,52.8756632 C27.5972597,53.6451225 29.1733531,55.7378472 29.1733531,58.198822 C29.1733531,61.3127847 26.6499049,63.8371501 23.5370738,63.8371501 C20.4242427,63.8371501 17.9007945,61.3127847 17.9007945,58.198822 C17.9007945,55.7378472 19.4768879,53.6451225 21.6744065,52.8756632 L21.6744065,41.3325083 L17.5706263,41.3325083 L17.5717453,47.9192726 C17.5717453,50.4825483 15.4945548,52.5604939 12.9322104,52.5604939 L10.9667199,52.5588751 C10.2051449,54.7710384 8.10625368,56.3604121 5.63627929,56.3604121 C2.52344819,56.3604121 2.84217094e-14,53.8360466 2.84217094e-14,50.722084 C2.84217094e-14,47.6081214 2.52344819,45.0837559 5.63627929,45.0837559 C8.08603407,45.0837559 10.1707563,46.6472143 10.9477485,48.8310912 L12.9905507,48.8310912 C13.4625615,48.8310912 13.8452018,48.4483118 13.8452018,47.9761294 L13.8452018,41.3325083 L5.65400042,41.3325083 C4.57511859,41.3325083 3.70051205,40.4575839 3.70051205,39.3783099 L3.70051205,1.95419847 C3.70051205,0.874924458 4.57511859,-1.42108547e-14 5.65400042,-1.42108547e-14 L57.2376164,-1.42108547e-14 C58.3164983,-1.42108547e-14 59.1911048,0.874924458 59.1911048,1.95419847 L59.1911048,39.3783099 C59.1911048,40.4575839 58.3164983,41.3325083 57.2376164,41.3325083 L49.085452,41.3325083 L49.085452,47.9761294 C49.085452,48.4483118 49.4680923,48.8310912 49.9401031,48.8310912 L51.9829054,48.8310912 C52.7598976,46.6472143 54.8446197,45.0837559 57.2943745,45.0837559 C60.4072056,45.0837559 62.9306538,47.6081214 62.9306538,50.722084 C62.9306538,53.8360466 60.4072056,56.3604121 57.2943745,56.3604121 C54.8244001,56.3604121 52.725509,54.7710384 51.9639339,52.5588751 L49.9996524,52.5604938 C47.436099,52.5604939 45.3589085,50.4825483 45.3589085,47.9192726 L45.3600275,41.3325083 L41.2584765,41.3325083 L41.2584765,52.8756632 C43.4559951,53.6451225 45.0320885,55.7378472 45.0320885,58.198822 C45.0320885,61.3127847 42.5086403,63.8371501 39.3958092,63.8371501 C36.2829781,63.8371501 33.7595299,61.3127847 33.7595299,58.198822 C33.7595299,55.7378472 35.3356233,53.6451225 37.5331419,52.8756632 L37.5331419,41.3325083 Z M39.4407163,60.0484002 C40.4618389,60.0484002 41.2896223,59.2203158 41.2896223,58.198822 C41.2896223,57.1773282 40.4618389,56.3492439 39.4407163,56.3492439 C38.4195937,56.3492439 37.5918102,57.1773282 37.5918102,58.198822 C37.5918102,59.2203158 38.4195937,60.0484002 39.4407163,60.0484002 Z M23.5819809,60.0484002 C24.6031035,60.0484002 25.4308869,59.2203158 25.4308869,58.198822 C25.4308869,57.1773282 24.6031035,56.3492439 23.5819809,56.3492439 C22.5608582,56.3492439 21.7330748,57.1773282 21.7330748,58.198822 C21.7330748,59.2203158 22.5608582,60.0484002 23.5819809,60.0484002 Z M57.3392816,52.5716621 C58.3604042,52.5716621 59.1881877,51.7435778 59.1881877,50.722084 C59.1881877,49.7005902 58.3604042,48.8725058 57.3392816,48.8725058 C56.318159,48.8725058 55.4903755,49.7005902 55.4903755,50.722084 C55.4903755,51.7435778 56.318159,52.5716621 57.3392816,52.5716621 Z M5.59137222,52.5716621 C6.61249484,52.5716621 7.44027829,51.7435778 7.44027829,50.722084 C7.44027829,49.7005902 6.61249484,48.8725058 5.59137222,48.8725058 C4.57024959,48.8725058 3.74246615,49.7005902 3.74246615,50.722084 C3.74246615,51.7435778 4.57024959,52.5716621 5.59137222,52.5716621 Z M30.1554353,12.9293586 L35.7525093,16.2831044 C36.070684,16.5163802 36.2591714,16.8906762 36.2591714,17.2892282 C36.2591714,17.6877801 36.070684,18.0620761 35.7525093,18.2953519 L30.1554353,21.6490977 C29.7776345,21.8706324 29.3121961,21.8707698 28.9342686,21.6494581 C28.5563411,21.4281465 28.3232712,21.0189676 28.3227651,20.575899 L28.3227651,14.0025573 C28.3232712,13.5594887 28.5563411,13.1503099 28.9342686,12.9289982 C29.3121961,12.7076865 29.7776345,12.7078239 30.1554353,12.9293586 Z M55.6445081,31.031948 L55.6445081,4.52360758 C55.6445081,3.98397057 55.2072048,3.54650834 54.6677639,3.54650834 L8.22385298,3.54650834 C7.68441206,3.54650834 7.24710879,3.98397057 7.24710879,4.52360758 L7.24710879,31.031948 L55.6445081,31.031948 Z M55.6445081,34.5784563 L7.24710879,34.5784563 L7.24710879,36.8093831 C7.24710879,37.3490201 7.68441206,37.7864824 8.22385298,37.7864824 L54.6677639,37.7864824 C55.2072048,37.7864824 55.6445081,37.3490201 55.6445081,36.8093831 L55.6445081,34.5784563 Z"
                ></path>
              </svg>